<?xml version="1.0" encoding="UTF-8" standalone="no"?>
<!-- Created with Inkscape (http://www.inkscape.org/) -->

<svg
   version="1.1"
   id="svg2"
   width="145.10667"
   height="62.306667"
   viewBox="0 0 145.10667 62.306667"
   sodipodi:docname="VAF_logo_sqaure_White.eps"
   xmlns:inkscape="http://www.inkscape.org/namespaces/inkscape"
   xmlns:sodipodi="http://sodipodi.sourceforge.net/DTD/sodipodi-0.dtd"
   xmlns="http://www.w3.org/2000/svg"
   xmlns:svg="http://www.w3.org/2000/svg">
  <defs
     id="defs6" />
  <sodipodi:namedview
     id="namedview4"
     pagecolor="#ffffff"
     bordercolor="#000000"
     borderopacity="0.25"
     inkscape:showpageshadow="2"
     inkscape:pageopacity="0.0"
     inkscape:pagecheckerboard="0"
     inkscape:deskcolor="#d1d1d1" />
  <g
     id="g8"
     inkscape:groupmode="layer"
     inkscape:label="ink_ext_XXXXXX"
     transform="matrix(1.3333333,0,0,-1.3333333,0,62.306667)">
    <g
       id="g10"
       transform="scale(0.1)">
      <path
         d="M 0,3.99609 355.664,462.367 C 296.016,350.949 257.559,278.035 259.082,171.453 l -50.434,-64.93 C 144.129,77.0313 37.8008,38.7148 0,3.99609 v 0"
         style="fill:#ffffff;fill-opacity:1;fill-rule:nonzero;stroke:none"
         id="path12" />
      <path
         d="m 208.648,106.523 c 31.102,14.219 52.5,26.387 51.813,35.114 -0.809,10.258 -1.242,20.16 -1.379,29.816 l 98.106,126.301 C 319.301,226.98 294.762,180.746 295.348,113.41 L 261.223,69.4727 C 219.77,50.7148 153.391,26.5938 129.563,4.70703 L 208.648,106.523 v 0"
         style="fill:#ffffff;fill-opacity:1;fill-rule:nonzero;stroke:none"
         id="path14" />
      <path
         d="m 296.262,92.7969 c -0.563,7.1094 -0.856,13.9611 -0.914,20.6131 l 60.375,77.723 C 329.074,141.359 312.742,110.563 316.73,59.9609 304.828,48.5078 231.563,23.3477 210.043,3.58203 l 51.18,65.89067 c 20.914,9.4648 35.492,17.5664 35.039,23.3242 v 0"
         style="fill:#ffffff;fill-opacity:1;fill-rule:nonzero;stroke:none"
         id="path16" />
      <path
         d="m 489.473,209.113 c 1.441,0 1.441,0.852 1.203,1.422 l -21.129,60.778 c -0.723,1.984 -1.199,1.417 -1.68,0 l -20.406,-60.778 c -0.242,-0.855 0.238,-1.422 0.961,-1.422 z m -48.016,-22.718 c -1.199,0 -1.68,-0.571 -2.16,-1.989 l -7.442,-23.289 c -2.402,-7.387 -3.843,-14.769 -3.843,-18.176 0,-5.394 2.16,-7.949 7.203,-8.519 2.64,-0.567 6.484,-0.852 8.402,-1.137 3.602,0 4.321,-1.422 4.321,-2.84 0,-2.273 -1.918,-2.84 -5.04,-2.84 -10.804,0 -18.964,0.852 -31.691,0.852 -2.641,0 -18.484,-0.852 -30.488,-0.852 -3.36,0 -4.801,1.137 -4.801,2.84 0,2.274 1.68,2.84 4.559,2.84 2.882,0.285 5.285,0.57 7.683,1.137 8.406,1.988 13.203,10.793 18.246,24.422 l 64.102,171.539 c 4.558,12.211 7.199,16.472 9.84,16.472 2.402,0 4.562,-3.976 8.644,-14.203 6.242,-15.902 46.574,-124.675 62.899,-167.843 8.164,-22.153 13.445,-28.969 21.847,-30.387 2.641,-0.852 5.524,-0.852 7.68,-1.137 3.125,0 4.562,-1.137 4.562,-2.84 0,-1.988 -1.679,-2.84 -6.242,-2.84 -23.527,0 -50.894,0.567 -66.258,0.852 -3.839,0 -5.281,0.852 -5.281,2.555 0,1.707 1.199,2.843 3.36,3.41 2.64,0.57 3.601,2.555 2.882,5.113 l -16.086,45.156 c -0.242,1.133 -1.203,1.704 -1.921,1.704 h -54.977"
         style="fill:#ffffff;fill-opacity:1;fill-rule:nonzero;stroke:none"
         id="path18" />
      <path
         d="m 659.367,240.922 c 0,-2.274 0.719,-3.406 2.16,-4.262 4.559,-2.84 11.762,-3.691 18.485,-3.691 6.484,0 11.289,1.136 15.125,4.547 5.043,4.543 9.363,16.754 9.363,35.781 0,40.328 -21.605,50.836 -34.09,50.836 -3.84,0 -7.926,-0.281 -9.605,-1.137 -0.957,-0.566 -1.438,-0.851 -1.438,-3.121 z m -41.289,19.027 c 0,44.02 -0.484,49.699 -0.726,58.789 -0.477,11.645 -3.36,15.336 -9.122,16.754 -3.601,0.852 -7.437,0.852 -9.601,1.137 -2.883,0.285 -4.32,1.422 -4.32,3.125 0,1.703 1.679,2.555 5.281,2.555 10.324,0 33.371,-0.852 36.726,-0.852 4.563,0 27.614,0.852 38.657,0.852 22.566,0 38.41,-2.555 48.972,-9.657 11.528,-7.382 21.848,-21.867 21.848,-43.449 0,-23.855 -11.523,-42.031 -32.168,-57.086 14.645,-24.992 32.168,-55.379 46.813,-75.258 12.722,-16.757 18.488,-21.586 25.207,-22.722 2.64,-0.567 4.085,-0.567 6.003,-0.852 2.641,0 4.082,-1.137 4.082,-2.84 0,-2.554 -2.402,-2.84 -4.804,-2.84 H 769.32 c -24.726,0 -35.293,2.84 -43.691,9.372 -7.684,5.398 -15.363,17.609 -24.731,35.5 -11.043,21.586 -16.562,33.23 -20.886,40.894 -0.477,0.856 -1.676,1.707 -2.879,1.707 h -15.844 c -1.203,0 -1.922,-0.566 -1.922,-2.273 v -14.481 c 0,-22.437 0,-35.789 1.203,-47.715 0.477,-7.382 2.157,-13.632 9.36,-15.617 3.359,-1.137 6.004,-1.137 10.804,-1.707 3.84,-0.285 4.321,-1.422 4.321,-3.125 0,-1.703 -1.68,-2.555 -5.043,-2.555 -16.082,0 -42.25,0.852 -43.93,0.852 -2.883,0 -26.168,-0.852 -34.328,-0.852 -3.602,0 -4.805,0.852 -4.805,2.84 0,1.989 1.68,2.84 4.321,2.84 2.398,0.285 5.523,0.57 8.164,1.137 4.8,1.418 6.722,6.531 7.441,16.187 0.961,11.926 1.203,31.809 1.203,59.356 v 49.984"
         style="fill:#ffffff;fill-opacity:1;fill-rule:nonzero;stroke:none"
         id="path20" />
      <path
         d="m 882.777,209.965 c 0,-22.152 0,-48.563 1.203,-60.492 0.477,-7.383 2.157,-13.348 9.36,-14.766 3.121,-0.57 6.004,-0.852 10.324,-1.422 3.844,-0.285 4.801,-1.137 4.801,-3.125 0,-1.703 -1.199,-2.555 -5.52,-2.555 -16.328,0 -39.613,0.852 -43.453,0.852 -4.086,0 -27.371,-0.852 -35.293,-0.852 -3.844,0 -5.519,0.567 -5.519,2.84 0,1.989 1.918,2.84 4.8,2.84 2.399,0.285 5.04,0.57 7.68,1.137 5.281,1.133 6.961,7.383 7.684,15.617 0.961,11.934 1.441,32.379 1.441,59.926 v 111.332 c -9.367,0 -24.25,0.281 -36.254,-0.57 -13.441,-0.852 -18.722,-4.543 -21.847,-14.485 -1.196,-3.125 -1.68,-4.828 -2.157,-6.531 -0.484,-2.273 -1.203,-4.547 -2.882,-4.547 -2.161,0 -2.161,2.274 -1.922,5.684 0.961,11.644 3.601,26.976 5.281,37.769 0.484,4.262 1.203,7.102 2.641,7.102 1.679,0 2.64,-0.856 8.164,-2.274 4.32,-1.136 17.527,-1.988 26.648,-1.988 h 104.43 c 7.445,0 11.765,0.57 15.129,1.137 3.836,0.851 5.757,1.703 7.437,1.703 2.164,0 2.406,-1.703 2.406,-8.805 0,-3.976 -1.445,-30.387 -1.687,-37.484 -0.234,-3.977 -0.953,-5.684 -2.399,-5.684 -1.921,0 -2.398,1.707 -2.64,5.114 -0.238,3.125 -0.238,4.261 -0.477,5.679 -0.961,8.805 -4.562,15.621 -18.73,16.758 -7.918,0.852 -20.403,1.422 -38.649,1.422 V 209.965"
         style="fill:#ffffff;fill-opacity:1;fill-rule:nonzero;stroke:none"
         id="path22" />
      <path
         d="m 968.57,131.582 c -4.082,1.988 -5.277,5.68 -5.277,11.359 0,23.004 0.719,33.797 1.437,41.75 0.481,5.11 1.438,6.813 2.879,6.813 1.684,0 1.922,-2.555 2.161,-4.828 0.242,-2.836 0.484,-5.395 1.203,-8.805 4.082,-23.285 22.086,-36.633 40.807,-36.633 22.81,0 29.77,13.914 29.77,26.125 0,11.93 -1.92,21.871 -22.32,38.344 l -14.89,12.211 c -29.285,24.426 -37.449,44.305 -37.449,69.297 0,32.66 22.804,59.07 61.219,59.07 10.32,0 17.53,-0.566 27.61,-2.84 3.84,-0.851 7.92,-1.988 11.76,-3.41 2.4,-0.847 3.12,-1.699 3.12,-3.972 -0.48,-9.09 -0.96,-14.766 -0.96,-40.043 0,-5.114 -0.72,-7.102 -2.64,-7.102 -1.2,0 -2.16,0.852 -2.64,5.398 -0.24,2.836 -0.96,9.938 -4.32,16.469 -4.56,9.09 -15.61,18.746 -32.89,18.746 -19.69,0 -26.89,-13.062 -26.89,-26.129 0,-9.656 2.88,-20.73 19.2,-33.797 l 12.25,-9.656 c 33.61,-26.41 44.17,-44.019 44.17,-72.703 0,-19.598 -7.44,-38.906 -25.45,-51.406 -13.92,-9.938 -29.28,-12.211 -41.77,-12.211 -18.004,0 -30.726,2.84 -40.09,7.953"
         style="fill:#ffffff;fill-opacity:1;fill-rule:nonzero;stroke:none"
         id="path24" />
      <path
         d="m 389.617,452.211 c -3.383,7.996 -4.715,9.156 -8.832,10.059 -0.965,0.253 -2.055,0.386 -2.781,0.386 -1.328,0.258 -1.934,0.774 -1.934,1.418 0,0.903 0.965,1.16 2.539,1.16 6.532,0 13.555,-0.386 18.395,-0.386 4.23,0 10.769,0.386 20.207,0.386 1.812,0 2.785,-0.515 2.785,-1.289 0,-0.777 -0.73,-1.289 -1.816,-1.289 -1.457,-0.133 -2.18,-0.133 -3.27,-0.386 -3.148,-0.516 -3.633,-1.938 -3.633,-3.227 0,-1.676 0.731,-4.254 2.786,-9.793 5.687,-15.734 13.308,-34.949 18.753,-50.031 4.961,11.859 17.551,43.453 21.539,55.57 0.606,1.418 0.973,3.098 0.973,4.254 0,1.68 -0.73,2.582 -2.906,2.969 -1.449,0.386 -3.512,0.511 -4.84,0.644 -1.574,0.129 -2.176,0.512 -2.176,1.289 0,0.774 0.602,1.289 2.66,1.289 7.985,0 13.914,-0.386 15.727,-0.386 1.816,0 9.684,0.386 13.434,0.386 1.816,0 2.66,-0.386 2.66,-1.289 0,-0.902 -0.606,-1.289 -2.176,-1.289 -1.449,-0.133 -3.391,-0.133 -5.324,-1.16 -2.543,-1.289 -4.239,-3.996 -7.621,-11.601 -4.844,-11.09 -9.2,-21.536 -16.094,-37.911 -7.742,-18.312 -12.949,-30.046 -16.094,-36.75 -3.512,-7.605 -4.723,-9.281 -6.293,-9.281 -1.695,0 -2.664,1.805 -4.961,7.735 l -31.707,78.523"
         style="fill:#ffffff;fill-opacity:1;fill-rule:nonzero;stroke:none"
         id="path26" />
      <path
         d="m 497.473,427.844 c 0,19.984 0,23.722 -0.364,27.851 -0.246,3.606 -1.578,5.93 -4.238,6.446 -0.844,0.257 -2.055,0.382 -3.629,0.515 -1.453,0 -2.301,0.512 -2.301,1.418 0,0.774 0.61,1.16 2.664,1.16 4.836,0 16.7,-0.386 17.665,-0.386 1.089,0 15.367,0.386 19.726,0.386 2.059,0 2.66,-0.515 2.66,-1.289 0,-1.031 -1.086,-1.289 -2.297,-1.289 -1.211,-0.133 -1.937,-0.133 -3.511,-0.386 -3.145,-0.645 -4.356,-2.325 -4.594,-6.961 -0.367,-4.125 -0.367,-7.481 -0.367,-27.465 v -22.692 c 0,-10.191 0.121,-22.179 0.605,-27.593 0.242,-3.356 0.969,-5.672 4.602,-6.579 1.57,-0.382 3.75,-0.515 5.32,-0.644 2.055,0 2.543,-0.516 2.543,-1.289 0,-0.645 -0.605,-1.289 -2.543,-1.289 -8.226,0 -21.176,0.387 -22.266,0.387 -0.605,0 -13.308,-0.387 -17.421,-0.387 -1.938,0 -2.907,0.262 -2.907,1.289 0,0.906 0.969,1.289 2.422,1.289 1.211,0.129 2.418,0.262 3.75,0.519 2.539,0.387 3.391,3.223 3.75,6.958 0.485,5.421 0.731,14.703 0.731,27.339 v 22.692"
         style="fill:#ffffff;fill-opacity:1;fill-rule:nonzero;stroke:none"
         id="path28" />
      <path
         d="m 576.852,419.203 c 0,-1.027 0.359,-1.547 1.093,-1.933 2.293,-1.29 5.926,-1.672 9.317,-1.672 3.261,0 5.683,0.511 7.617,2.058 2.547,2.063 4.726,7.61 4.726,16.246 0,18.309 -10.898,23.082 -17.187,23.082 -1.934,0 -3.996,-0.129 -4.844,-0.519 -0.48,-0.258 -0.722,-0.387 -0.722,-1.414 z m -20.813,8.641 c 0,19.984 -0.242,22.562 -0.359,26.687 -0.246,5.289 -1.696,6.965 -4.602,7.61 -1.816,0.382 -3.75,0.382 -4.84,0.515 -1.453,0.129 -2.175,0.645 -2.175,1.418 0,0.774 0.843,1.16 2.66,1.16 5.203,0 16.816,-0.386 18.515,-0.386 2.297,0 13.918,0.386 19.485,0.386 11.367,0 19.355,-1.16 24.675,-4.382 5.813,-3.352 11.016,-9.93 11.016,-19.727 0,-10.832 -5.809,-19.082 -16.219,-25.918 7.383,-11.344 16.219,-25.144 23.602,-34.168 6.406,-7.605 9.316,-9.797 12.707,-10.316 1.328,-0.258 2.051,-0.258 3.016,-0.387 1.339,0 2.062,-0.516 2.062,-1.289 0,-1.16 -1.211,-1.289 -2.422,-1.289 h -10.89 c -12.461,0 -17.782,1.289 -22.02,4.254 -3.879,2.453 -7.746,7.992 -12.461,16.117 -5.566,9.801 -8.351,15.086 -10.527,18.566 -0.246,0.391 -0.852,0.778 -1.457,0.778 h -7.989 c -0.605,0 -0.964,-0.262 -0.964,-1.032 v -6.578 c 0,-10.183 0,-16.246 0.605,-21.66 0.242,-3.355 1.094,-6.191 4.715,-7.094 1.699,-0.511 3.027,-0.511 5.449,-0.773 1.934,-0.129 2.18,-0.645 2.18,-1.418 0,-0.773 -0.852,-1.16 -2.539,-1.16 -8.106,0 -21.301,0.387 -22.149,0.387 -1.445,0 -13.187,-0.387 -17.3,-0.387 -1.817,0 -2.422,0.387 -2.422,1.289 0,0.906 0.847,1.289 2.175,1.289 1.211,0.129 2.786,0.262 4.118,0.519 2.418,0.645 3.39,2.965 3.75,7.348 0.488,5.414 0.605,14.438 0.605,26.949 v 22.692"
         style="fill:#ffffff;fill-opacity:1;fill-rule:nonzero;stroke:none"
         id="path30" />
      <path
         d="m 729.547,380.137 c 0,-7.606 -0.246,-8.383 -2.422,-9.282 -6.418,-2.71 -18.75,-4.902 -29.648,-4.902 -33.997,0 -57.598,16.246 -57.598,50.543 0,21.531 10.527,35.199 21.785,42.035 12.461,7.867 25.527,8.512 34.727,8.512 7.382,0 14.394,-0.906 19.601,-1.809 4.11,-0.515 8.106,-1.421 11.621,-1.546 1.082,0 1.328,-0.52 1.211,-1.676 -0.246,-1.289 -1.34,-6.578 -1.34,-23.727 0,-2.062 -0.476,-2.707 -1.328,-2.707 -0.847,0 -1.328,1.035 -1.453,2.063 -0.234,1.933 -0.234,3.355 -1.445,6.445 -2.305,8.769 -13.078,14.957 -29.895,14.957 -8.953,0 -16.211,-2.703 -21.66,-9.281 -4.715,-5.676 -7.617,-15.215 -7.617,-27.852 0,-23.078 10.402,-47.707 35.812,-47.707 1.7,0 4.961,0.133 6.778,1.551 0.965,0.769 1.453,1.934 1.453,3.48 v 7.868 c 0,5.281 0,10.312 -0.125,15.082 0,7.347 -1.574,10.058 -5.684,10.703 -1.574,0.258 -3.144,0.386 -5.207,0.644 -0.965,0 -1.933,0.516 -1.933,1.289 0,0.778 0.605,1.289 2.539,1.289 7.871,0 17.187,-0.386 20.449,-0.386 4.355,0 12.227,0.386 18.762,0.386 1.816,0 2.781,-0.257 2.781,-1.289 0,-0.902 -0.731,-1.164 -1.941,-1.289 -0.481,0 -2.051,-0.258 -3.262,-0.386 -2.903,-0.645 -4.238,-2.067 -4.602,-6.579 -0.242,-4.125 -0.359,-10.828 -0.359,-17.148 v -9.281"
         style="fill:#ffffff;fill-opacity:1;fill-rule:nonzero;stroke:none"
         id="path32" />
      <path
         d="m 758.629,427.844 c 0,19.984 0,23.722 -0.363,27.851 -0.243,3.606 -1.571,5.93 -4.239,6.446 -0.847,0.257 -2.058,0.382 -3.632,0.515 -1.446,0 -2.293,0.512 -2.293,1.418 0,0.774 0.605,1.16 2.664,1.16 4.836,0 16.691,-0.386 17.668,-0.386 1.082,0 15.359,0.386 19.714,0.386 2.063,0 2.668,-0.515 2.668,-1.289 0,-1.031 -1.093,-1.289 -2.304,-1.289 -1.203,-0.133 -1.934,-0.133 -3.508,-0.386 -3.145,-0.645 -4.356,-2.325 -4.598,-6.961 -0.363,-4.125 -0.363,-7.481 -0.363,-27.465 v -22.692 c 0,-10.191 0.117,-22.179 0.605,-27.593 0.247,-3.356 0.969,-5.672 4.602,-6.579 1.57,-0.382 3.75,-0.515 5.32,-0.644 2.063,0 2.539,-0.516 2.539,-1.289 0,-0.645 -0.605,-1.289 -2.539,-1.289 -8.23,0 -21.172,0.387 -22.265,0.387 -0.606,0 -13.309,-0.387 -17.422,-0.387 -1.934,0 -2.899,0.262 -2.899,1.289 0,0.906 0.965,1.289 2.411,1.289 1.21,0.129 2.421,0.262 3.75,0.519 2.55,0.387 3.39,3.223 3.761,6.958 0.477,5.421 0.723,14.703 0.723,27.339 v 22.692"
         style="fill:#ffffff;fill-opacity:1;fill-rule:nonzero;stroke:none"
         id="path34" />
      <path
         d="m 817.309,460.977 c 0.117,3.871 0.605,6.191 2.062,6.191 0.965,0 1.57,-0.387 4.715,-3.094 5.078,-4.511 11.379,-10.957 39.082,-38.039 12.344,-12.117 20.695,-20.758 23.957,-23.851 l -0.723,48.355 c -0.246,7.215 -0.851,10.57 -5.683,11.473 -1.699,0.386 -3.633,0.511 -5.332,0.644 -1.574,0 -2.18,0.645 -2.18,1.289 0,0.903 1.094,1.289 2.422,1.289 4.844,0 12.707,-0.386 17.551,-0.386 2.656,0 8.711,0.386 13.789,0.386 1.816,0 2.664,-0.386 2.664,-1.16 0,-0.644 -0.606,-1.418 -2.059,-1.418 -1.574,-0.133 -2.179,-0.133 -3.019,-0.386 -3.992,-0.516 -5.203,-2.707 -5.567,-10.704 -0.976,-25.918 -0.976,-51.703 -1.453,-77.621 0,-6.57 -0.851,-7.992 -2.422,-7.992 -1.933,0 -5.683,3.094 -13.554,10.445 -8.223,7.735 -18.879,17.918 -26.133,25.012 -6.778,6.578 -18.879,18.699 -27.715,27.852 l 1.211,-43.969 c 0.242,-9.281 0.73,-12.762 4.121,-14.051 1.816,-0.644 3.992,-0.644 6.406,-0.906 1.817,-0.129 2.422,-0.516 2.422,-1.289 0,-1.027 -0.969,-1.289 -2.902,-1.289 -4.239,0 -8.106,0.262 -15.614,0.387 -2.785,0 -11.73,-0.387 -16.457,-0.387 -1.687,0 -2.656,0.262 -2.656,1.289 0,0.773 0.606,1.289 2.297,1.289 1.094,0.129 2.664,0.129 3.992,0.387 4.719,0.777 5.324,4 5.684,15.988 0.605,26.562 0.371,57.637 1.094,74.266"
         style="fill:#ffffff;fill-opacity:1;fill-rule:nonzero;stroke:none"
         id="path36" />
      <path
         d="m 933.441,427.844 c 0,19.984 0,23.722 -0.359,27.851 -0.246,3.606 -1.574,5.93 -4.238,6.446 -0.852,0.257 -2.063,0.382 -3.633,0.515 -1.445,0 -2.297,0.512 -2.297,1.418 0,0.774 0.606,1.16 2.668,1.16 4.832,0 16.688,-0.386 17.664,-0.386 1.086,0 15.363,0.386 19.719,0.386 2.058,0 2.664,-0.515 2.664,-1.289 0,-1.031 -1.094,-1.289 -2.305,-1.289 -1.199,-0.133 -1.933,-0.133 -3.504,-0.386 -3.144,-0.645 -4.355,-2.325 -4.601,-6.961 -0.36,-4.125 -0.36,-7.481 -0.36,-27.465 v -22.692 c 0,-10.191 0.118,-22.179 0.606,-27.593 0.242,-3.356 0.965,-5.672 4.598,-6.579 1.574,-0.382 3.75,-0.515 5.324,-0.644 2.058,0 2.539,-0.516 2.539,-1.289 0,-0.645 -0.606,-1.289 -2.539,-1.289 -8.223,0 -21.172,0.387 -22.266,0.387 -0.605,0 -13.312,-0.387 -17.422,-0.387 -1.933,0 -2.902,0.262 -2.902,1.289 0,0.906 0.969,1.289 2.414,1.289 1.211,0.129 2.422,0.262 3.75,0.519 2.547,0.387 3.387,3.223 3.758,6.958 0.48,5.421 0.722,14.703 0.722,27.339 v 22.692"
         style="fill:#ffffff;fill-opacity:1;fill-rule:nonzero;stroke:none"
         id="path38" />
      <path
         d="m 1030.73,404.762 c 0.73,0 0.73,0.39 0.6,0.644 L 1020.69,433 c -0.36,0.902 -0.61,0.645 -0.85,0 l -10.28,-27.594 c -0.13,-0.386 0.11,-0.644 0.47,-0.644 z m -24.2,-10.313 c -0.61,0 -0.85,-0.258 -1.09,-0.902 l -3.76,-10.574 c -1.2,-3.352 -1.93,-6.703 -1.93,-8.25 0,-2.453 1.09,-3.614 3.63,-3.868 1.33,-0.257 3.27,-0.39 4.24,-0.519 1.81,0 2.18,-0.645 2.18,-1.289 0,-1.027 -0.98,-1.289 -2.55,-1.289 -5.44,0 -9.551,0.387 -15.965,0.387 -1.328,0 -9.316,-0.387 -15.371,-0.387 -1.691,0 -2.422,0.515 -2.422,1.289 0,1.031 0.848,1.289 2.305,1.289 1.445,0.129 2.656,0.262 3.867,0.519 4.238,0.899 6.66,4.899 9.199,11.083 l 32.307,77.882 c 2.3,5.543 3.63,7.477 4.96,7.477 1.21,0 2.3,-1.805 4.35,-6.445 3.16,-7.223 23.48,-56.602 31.71,-76.204 4.11,-10.058 6.78,-13.148 11.01,-13.793 1.34,-0.39 2.78,-0.39 3.87,-0.519 1.58,0 2.3,-0.516 2.3,-1.289 0,-0.902 -0.85,-1.289 -3.14,-1.289 -11.86,0 -25.66,0.262 -33.4,0.387 -1.94,0 -2.66,0.386 -2.66,1.164 0,0.769 0.61,1.289 1.69,1.546 1.33,0.254 1.82,1.157 1.46,2.321 l -8.11,20.496 c -0.13,0.519 -0.61,0.777 -0.98,0.777 h -27.7"
         style="fill:#ffffff;fill-opacity:1;fill-rule:nonzero;stroke:none"
         id="path40" />
      <path
         d="m 389.797,64.043 c 0,22.1679 -0.149,23.2539 -0.442,27.4023 -0.292,4.7774 -1.617,7.0899 -5.14,7.5469 -1.324,0.3047 -3.086,0.4609 -4.703,0.6172 -1.324,0.3008 -2.5,0.6176 -2.5,1.5426 0,1.075 0.883,1.536 3.379,1.536 7.64,0 15.136,-0.461 20.57,-0.461 2.355,0 37.617,0.156 39.527,0.156 2.649,0 6.172,0.613 7.348,0.918 0.887,0.312 1.91,0.617 2.207,0.617 0.879,0 1.027,-0.617 0.879,-1.23 -0.145,-1.079 -0.731,-4.1528 -1.031,-7.2388 -0.293,-3.5351 -0.586,-7.539 -0.731,-13.8554 -0.148,-1.8477 -0.586,-2.3086 -1.617,-2.3086 -0.883,0 -1.32,0.9179 -1.469,2.1601 -0.144,1.6914 -0.144,2.461 -0.586,4.3086 -0.738,3.2305 -2.5,4.9219 -8.672,5.5469 -4.703,0.3008 -16.898,0.6133 -20.863,0.6133 -0.887,0 -1.18,-0.4688 -1.18,-1.3868 V 61.2695 c 0,-0.9179 0.149,-1.5351 1.032,-1.5351 4.113,-0.1563 13.222,0 18.367,0.1484 7.348,0.3125 8.816,0.6133 10.578,3.7031 0.594,0.918 1.18,1.3868 1.762,1.3868 0.886,0 0.886,-1.086 0.886,-1.8594 0,-1.5313 -0.585,-6.7656 -1.031,-11.6953 -0.144,-2.9219 0,-10.0117 0,-11.5469 0,-1.3867 -0.293,-2.6133 -1.324,-2.6133 -0.73,0 -1.316,0.6133 -1.469,2.3047 -0.144,0.9258 -0.293,1.6992 -0.437,2.6172 -0.442,4.3125 -1.91,6.4648 -8.668,6.7734 -4.266,0.3164 -14.699,0.6172 -18.809,0.6172 -0.738,0 -0.887,-0.3008 -0.887,-1.0742 v -9.707 c 0,-12.9297 0,-20.7813 0.739,-26.4727 0.293,-3.84765 1.172,-6.16406 6.32,-6.93359 1.762,-0.30468 3.379,-0.46093 4.551,-0.46093 2.058,-0.15625 2.937,-0.77344 2.937,-1.54297 0,-0.76172 -0.293,-1.53125 -2.937,-1.53125 -7.051,0 -7.051,0.45703 -23.512,0.45703 -10.723,0 -18.953,-0.45703 -21.891,-0.45703 -1.914,0 -2.644,0.61328 -2.644,1.38281 0,0.61719 0.144,1.37891 2.199,1.69141 1.18,0.15625 2.207,0.15625 3.973,0.46093 3.523,0.46875 4.258,4.00391 4.703,9.85159 0.586,7.707 0.586,12.4687 0.586,25.4101 V 64.043"
         style="fill:#ffffff;fill-opacity:1;fill-rule:nonzero;stroke:none"
         id="path42" />
      <path
         d="m 476.852,64.043 c 0,22.1679 -0.149,24.6406 -0.442,28.9453 -0.293,3.3906 -1.613,5.5469 -4.699,6.1601 -1.18,0.3047 -2.648,0.3047 -3.973,0.461 -1.91,0.1562 -2.203,0.9176 -2.203,1.6916 0,0.769 0.735,1.387 2.793,1.387 7.938,0 14.11,-0.461 19.688,-0.461 2.355,0 36.148,0.156 38.211,0.156 2.496,0 5.285,0.144 7.488,0.613 0.883,0.305 1.617,0.461 2.062,0.461 0.731,0 1.024,-0.613 0.879,-1.387 -0.293,-1.687 -0.734,-3.3864 -1.027,-6.4645 -0.145,-3.3867 -0.297,-6.1641 -0.738,-14.4727 0,-1.0742 -0.586,-2.1562 -1.469,-2.1562 -0.731,0 -1.324,0.6132 -1.469,1.8437 -0.293,1.8555 -0.293,2.9297 -0.73,4.9336 -0.739,3.0742 -2.356,4.9219 -8.672,5.5469 -4.852,0.3008 -15.578,0.6133 -19.692,0.6133 -0.734,0 -1.027,-0.4688 -1.027,-1.3868 V 62.3555 c 0,-0.9297 0.145,-1.2422 1.027,-1.2422 3.965,0 13.079,0 18.219,0.1562 7.203,0.3125 8.965,0.7735 10.582,3.3868 0.586,1.2343 1.176,1.6992 1.762,1.6992 0.883,0 1.031,-0.9258 1.031,-1.6992 0,-1.543 -0.883,-7.3907 -1.031,-12.3125 -0.145,-2.9297 -0.293,-10.0079 -0.293,-11.5508 0,-1.8477 -0.438,-2.3086 -1.324,-2.3086 -0.731,0 -1.321,0.6172 -1.469,2.1601 -0.145,0.7618 -0.145,1.6914 -0.293,2.6172 -0.73,4.1485 -2.199,6.6211 -9.109,7.0821 -4.114,0.3007 -14.11,0.457 -18.219,0.457 -0.738,0 -0.883,-0.3047 -0.883,-1.0742 v -9.6993 c 0,-4.4687 -0.148,-10.7812 0,-16.1718 0.145,-9.3907 1.762,-11.5391 16.754,-11.5391 3.379,0 8.519,0.1563 12.195,1.5313 3.672,1.5429 5.141,4.7734 6.317,10.9375 0.293,1.5312 0.879,2.3046 1.765,2.3046 1.024,0 1.172,-1.0742 1.172,-2.7734 0,-5.8476 -1.32,-16.62109 -1.91,-19.23827 -1.027,-3.38672 -2.055,-3.54688 -6.902,-3.54688 -19.696,0 -29.098,0.77344 -43.059,0.77344 -6.172,0 -12.488,-0.45703 -19.98,-0.45703 -2.5,0 -3.086,0.76953 -3.086,1.6875 0,0.61328 0.437,1.38672 2.64,1.38672 1.325,0.15625 2.356,0.15625 3.825,0.46093 4.257,0.76953 4.703,6.00389 5.14,15.39849 0,5.0781 0.149,12.4726 0.149,19.8632 V 64.043"
         style="fill:#ffffff;fill-opacity:1;fill-rule:nonzero;stroke:none"
         id="path44" />
      <path
         d="m 560.395,3.84766 c -2.352,0.91797 -2.938,2.92187 -2.938,5.38281 0,11.55083 0.293,16.47263 0.731,20.63283 0.304,2.4609 1.035,2.9297 1.769,2.9297 0.731,0 1.172,-0.6133 1.316,-2 0.149,-1.2305 0.149,-2.3164 0.45,-3.5469 1.757,-11.543 12.492,-18.16407 23.215,-18.16407 11.902,0 15.574,5.85157 15.574,11.23827 0,5.3828 -1.766,9.6992 -12.93,17.5508 l -8.086,5.6953 c -15.723,11.3945 -19.98,20.3203 -19.98,32.6328 0.148,15.4024 12.929,28.3318 34.238,28.3318 6.027,0 9.992,-0.301 16.016,-1.535 2.062,-0.469 4.406,-0.926 6.613,-1.543 1.316,-0.301 1.621,-0.769 1.621,-1.9999 -0.156,-4.9218 -0.449,-7.2343 -0.449,-19.5508 0,-2.3125 -0.442,-3.2304 -1.465,-3.2304 -0.735,0 -1.477,0.3008 -1.77,2.6133 -0.144,1.5351 -0.586,4.4648 -2.05,7.3945 -2.645,4.9219 -9.551,9.543 -18.368,9.543 -11.027,0 -14.55,-6.4649 -14.55,-12.1602 0,-5.8594 2.644,-9.8516 9.988,-14.6289 l 7.5,-4.9297 c 18.957,-12.4726 24.25,-20.0117 24.25,-33.4101 0,-10.625 -4.563,-19.8633 -14.699,-25.71099 C 598.598,0.761719 589.488,0 582.582,0 572.301,0 565.543,1.53125 560.395,3.84766"
         style="fill:#ffffff;fill-opacity:1;fill-rule:nonzero;stroke:none"
         id="path46" />
      <path
         d="m 691.305,40.6445 c 0,-10.164 0.144,-22.0234 0.586,-27.7148 0.293,-3.38673 1.316,-6.77736 5.293,-7.39454 1.609,-0.30078 3.086,-0.45703 5.281,-0.61328 2.355,-0.3125 2.941,-0.92969 2.941,-1.84766 0,-0.76953 -0.734,-1.22656 -3.086,-1.22656 -9.113,0 -22.922,0.45703 -24.836,0.45703 -1.902,0 -16.015,-0.45703 -19.98,-0.45703 -2.207,0 -3.086,0.30078 -3.086,1.38281 0,1.07812 1.172,1.53516 2.648,1.69141 1.317,0.15625 2.645,0.15625 4.258,0.46093 2.938,0.61328 3.817,3.23047 4.266,7.08989 0.586,5.6914 0.586,15.0859 0.586,28.1718 v 51.2696 c -5,0 -13.524,0.1484 -19.988,-0.3125 -7.2,-0.4571 -9.7,-2.3047 -11.309,-7.6953 -0.293,-0.9258 -0.586,-2.004 -1.035,-2.9297 -0.293,-0.918 -0.735,-2 -1.614,-2 -1.023,0 -1.316,1.2265 -1.171,2.7695 0.734,6.4687 1.906,13.4023 2.941,19.5549 0.293,2 1.023,2.929 1.758,2.929 0.73,0 1.765,-0.617 3.816,-0.929 1.914,-0.457 9.992,-1.074 14.992,-1.074 h 58.778 c 3.82,0 6.172,0.3 7.929,0.617 2.5,0.457 3.528,0.769 4.27,0.769 1.465,0 1.316,-0.769 1.316,-4.6208 0,-1.543 -0.879,-15.3984 -1.023,-18.6328 -0.148,-2.1563 -0.879,-2.7696 -1.621,-2.7696 -0.735,0 -1.32,0.7696 -1.465,2.3125 0,1.6915 -0.148,2.461 -0.148,3.2344 -0.438,4.1602 -2.059,7.0781 -8.965,7.8477 -4.707,0.3164 -11.758,0.9297 -22.332,0.9297 V 40.6445"
         style="fill:#ffffff;fill-opacity:1;fill-rule:nonzero;stroke:none"
         id="path48" />
      <path
         d="m 751.547,64.043 c 0,20.7812 0,24.3242 -0.449,28.4843 -0.293,3.5391 -1.172,6.0079 -4.403,6.4649 -0.879,0.3047 -2.355,0.4609 -4.113,0.6172 -1.766,0.1562 -2.5,0.6176 -2.5,1.5426 0,0.762 0.441,1.536 2.941,1.536 5.137,0 19.247,-0.461 19.688,-0.461 0.73,0 17.344,0.461 22.332,0.461 2.355,0 2.648,-0.618 2.648,-1.536 0,-1.086 -1.027,-1.3864 -2.648,-1.5426 -1.316,-0.1563 -1.465,-0.1563 -2.938,-0.461 -3.527,-0.7695 -4.699,-2.1562 -5.285,-6.7773 -0.449,-4.3125 -0.449,-7.5469 -0.449,-28.3281 V 40.6445 c 0,-10.164 0.156,-22.7929 0.742,-28.4882 0.293,-3.38677 1.172,-5.69146 5.137,-6.62114 1.77,-0.45703 3.977,-0.45703 5.441,-0.61328 2.207,0 2.793,-0.92969 2.793,-1.69141 0,-0.61328 -0.586,-1.38281 -2.793,-1.38281 -9.113,0 -24.25,0.45703 -24.98,0.45703 -0.293,0 -15.578,-0.45703 -19.688,-0.45703 -2.207,0 -3.085,0.45703 -3.085,1.53125 0,0.76953 0.73,1.54297 2.207,1.54297 1.171,0.15625 2.488,0.15625 4.257,0.46093 2.793,0.61328 3.965,3.38672 4.258,7.23439 0.742,5.5469 0.887,14.7851 0.887,28.0273 V 64.043"
         style="fill:#ffffff;fill-opacity:1;fill-rule:nonzero;stroke:none"
         id="path50" />
      <path
         d="m 810.863,88.9844 c -3.828,8.6211 -5,9.3945 -9.402,10.164 0,0.1485 -2.207,0.3047 -3.086,0.461 -1.328,0.1562 -1.77,0.9176 -1.77,1.5426 0,0.918 0.879,1.536 2.5,1.536 7.2,0 14.993,-0.461 20.274,-0.461 5,0 12.344,0.461 23.516,0.461 2.199,0 2.941,-0.618 2.941,-1.536 0,-0.769 -0.742,-1.3864 -1.914,-1.5426 -1.465,-0.1563 -1.906,-0.3125 -3.234,-0.461 -3.965,-0.3086 -4.403,-1.8515 -4.403,-3.2421 0,-1.6875 0.586,-3.9922 2.938,-9.8399 5.871,-15.5586 13.957,-34.4961 19.836,-49.2812 5.293,11.5546 15.574,36.9531 21.746,52.5117 1.465,3.8476 1.906,5.539 1.906,6.6094 0,1.8593 -0.734,2.6289 -3.379,2.9335 -1.613,0.3086 -3.965,0.6133 -5.285,0.7696 -1.914,0.3008 -2.5,0.7736 -2.5,1.5426 0,0.918 0.734,1.536 2.793,1.536 9.258,0 15.871,-0.461 17.785,-0.461 2.051,0 11.016,0.461 15.273,0.461 2.059,0 2.938,-0.618 2.938,-1.536 0,-0.925 -0.731,-1.3864 -2.488,-1.5426 -1.621,-0.1563 -3.535,-0.1563 -5.586,-1.0742 -3.086,-1.3868 -4.856,-4.0039 -8.528,-11.711 C 888.441,75.4414 883.453,64.043 875.805,46.9531 867.289,28.1758 861.703,16.6211 858.18,9.38672 854.352,1.69141 852.887,0 851.117,0 c -1.758,0 -2.781,1.84766 -5.281,7.99609 L 810.863,88.9844"
         style="fill:#ffffff;fill-opacity:1;fill-rule:nonzero;stroke:none"
         id="path52" />
      <path
         d="m 947.348,39.4141 c 0.89,0 0.89,0.3047 0.742,0.6132 l -11.61,27.5625 c -0.441,0.7618 -0.441,0.4571 -0.734,-0.1562 L 924.867,40.0273 c -0.144,-0.4648 0.149,-0.6132 0.442,-0.6132 z m -26.153,-12.168 c -0.879,0 -1.316,-0.9297 -1.465,-1.3867 l -3.085,-7.8516 c -1.329,-3.3906 -2.207,-6.4648 -2.207,-8.15233 0,-4.47266 5.585,-4.62109 8.964,-4.93359 1.907,-0.15625 2.356,-0.77344 2.356,-1.38672 0,-1.07422 -0.742,-1.6875 -2.5,-1.6875 -6.465,0 -10.879,0.45703 -18.371,0.45703 -1.473,0 -9.989,-0.45703 -16.309,-0.45703 -2.058,0 -2.644,0.61328 -2.644,1.53125 0,0.92968 0.73,1.54297 2.351,1.54297 6.32,0.76953 9.699,2.61718 13.516,11.69922 l 35.265,78.8281 c 3.086,7.0778 4.559,9.0818 6.172,9.0818 1.473,0 2.645,-2.004 5.145,-7.2341 3.234,-7.5391 26.008,-57.5781 34.824,-77.9024 4.551,-9.85153 6.906,-13.39841 11.906,-14.16012 1.172,-0.15625 2.196,-0.3125 2.938,-0.3125 1.613,0 2.489,-0.77344 2.489,-1.54297 0,-1.07422 -1.169,-1.53125 -2.634,-1.53125 -14.843,0.14453 -30.129,0.30078 -37.922,0.45703 -1.757,0 -2.636,0.61719 -2.636,1.38672 0,0.91797 0.879,1.23047 1.757,1.54297 1.184,0.45703 2.5,0.61718 1.77,2.30468 l -8.086,18.93754 c -0.148,0.4648 -0.734,0.7695 -1.172,0.7695 h -30.422"
         style="fill:#ffffff;fill-opacity:1;fill-rule:nonzero;stroke:none"
         id="path54" />
      <path
         d="m 1045.73,40.4883 c 0,-12.6289 -0.44,-22.3242 1.62,-25.2539 1.91,-2.7617 4.26,-3.2305 15.28,-3.2305 7.35,0 10.87,0.1524 14.55,1.543 3.67,1.5429 6.47,4.7734 8.08,12.1562 0.29,1.543 0.73,2.7735 1.91,2.7735 0.88,0 1.17,-0.918 1.17,-2.7735 0,-3.3789 -1.91,-16.77732 -3.23,-20.62497 -1.17,-3.54688 -2.06,-3.54688 -6.9,-3.54688 -19.84,0 -32.03,0.77344 -46,0.77344 -6.17,0 -12.78,-0.45703 -20.27,-0.45703 -2.06,0 -3.09,0.45703 -3.09,1.6875 0,0.61328 0.73,1.38672 2.5,1.38672 1.32,0.15625 1.61,0.15625 3.08,0.3125 5.29,0.91796 5.88,3.07812 6.33,15.39062 0,5.2344 0.14,12.6289 0.14,20.0195 V 64.043 c 0,22.1679 -0.14,23.7109 -0.45,28.0195 -0.29,3.6992 -1.46,5.8477 -4.55,6.7773 -1.17,0.3086 -2.94,0.6133 -4.85,0.7696 -1.47,0.1562 -2.64,0.4566 -2.64,1.5426 0,1.075 1.03,1.536 3.67,1.536 7.93,0 14.4,-0.461 19.99,-0.461 0.73,0 17.78,0.461 22.48,0.461 2.35,0 2.94,-0.618 2.94,-1.387 0,-1.235 -1.18,-1.6916 -2.36,-1.6916 -1.46,-0.1563 -2.05,-0.1563 -3.96,-0.6172 -3.68,-0.6133 -4.7,-3.0859 -4.99,-7.8477 -0.3,-4.3203 -0.45,-6.3203 -0.45,-28.789 V 40.4883"
         style="fill:#ffffff;fill-opacity:1;fill-rule:nonzero;stroke:none"
         id="path56" />
    </g>
  </g>
</svg>
